<mxfile host="app.diagrams.net" modified="2023-09-26T15:47:18.315Z" agent="Mozilla/5.0 (Windows NT 10.0; Win64; x64) AppleWebKit/537.36 (KHTML, like Gecko) Chrome/117.0.0.0 Safari/537.36 Edg/117.0.2045.36" etag="XEVqUsSjkbvaK4x_NTUW" version="21.8.2" type="device">
  <diagram id="lYHbbKCl3KiSbV3zHjBZ" name="第 1 页">
    <mxGraphModel dx="1002" dy="474" grid="1" gridSize="10" guides="1" tooltips="1" connect="1" arrows="1" fold="1" page="1" pageScale="1" pageWidth="827" pageHeight="1169" math="0" shadow="0">
      <root>
        <mxCell id="0" />
        <mxCell id="1" parent="0" />
        <mxCell id="mTcE_A4vf_Ze26416u9T-1" value="" style="edgeStyle=orthogonalEdgeStyle;rounded=0;orthogonalLoop=1;jettySize=auto;html=1;" parent="1" source="mTcE_A4vf_Ze26416u9T-2" target="mTcE_A4vf_Ze26416u9T-16" edge="1">
          <mxGeometry relative="1" as="geometry" />
        </mxCell>
        <mxCell id="mTcE_A4vf_Ze26416u9T-2" value="connected" style="rectangle;whiteSpace=wrap;html=1;fontSize=12;glass=0;strokeWidth=1;shadow=0;" parent="1" vertex="1">
          <mxGeometry x="221" y="152" width="120" height="40" as="geometry" />
        </mxCell>
        <mxCell id="mTcE_A4vf_Ze26416u9T-3" style="edgeStyle=orthogonalEdgeStyle;rounded=0;orthogonalLoop=1;jettySize=auto;html=1;exitX=0.5;exitY=1;exitDx=0;exitDy=0;entryX=0.5;entryY=0;entryDx=0;entryDy=0;" parent="1" source="mTcE_A4vf_Ze26416u9T-4" target="mTcE_A4vf_Ze26416u9T-2" edge="1">
          <mxGeometry relative="1" as="geometry" />
        </mxCell>
        <mxCell id="mTcE_A4vf_Ze26416u9T-4" value="start socket" style="rectangle;whiteSpace=wrap;html=1;fontSize=12;glass=0;strokeWidth=1;shadow=0;" parent="1" vertex="1">
          <mxGeometry x="221" y="82" width="120" height="40" as="geometry" />
        </mxCell>
        <mxCell id="mTcE_A4vf_Ze26416u9T-5" value="TCP&lt;br&gt;Client" style="text;html=1;strokeColor=none;fillColor=none;align=center;verticalAlign=middle;whiteSpace=wrap;rounded=0;" parent="1" vertex="1">
          <mxGeometry x="251" y="40" width="60" height="30" as="geometry" />
        </mxCell>
        <mxCell id="mTcE_A4vf_Ze26416u9T-6" value="" style="edgeStyle=orthogonalEdgeStyle;rounded=0;orthogonalLoop=1;jettySize=auto;html=1;" parent="1" source="mTcE_A4vf_Ze26416u9T-10" target="mTcE_A4vf_Ze26416u9T-14" edge="1">
          <mxGeometry relative="1" as="geometry" />
        </mxCell>
        <mxCell id="mTcE_A4vf_Ze26416u9T-7" value="Yes" style="edgeLabel;html=1;align=center;verticalAlign=middle;resizable=0;points=[];" parent="mTcE_A4vf_Ze26416u9T-6" vertex="1" connectable="0">
          <mxGeometry x="-0.2321" y="1" relative="1" as="geometry">
            <mxPoint x="-3" y="-7" as="offset" />
          </mxGeometry>
        </mxCell>
        <mxCell id="mTcE_A4vf_Ze26416u9T-8" value="" style="edgeStyle=orthogonalEdgeStyle;rounded=0;orthogonalLoop=1;jettySize=auto;html=1;" parent="1" source="mTcE_A4vf_Ze26416u9T-10" target="mTcE_A4vf_Ze26416u9T-12" edge="1">
          <mxGeometry relative="1" as="geometry">
            <Array as="points">
              <mxPoint x="282" y="350" />
              <mxPoint x="282" y="350" />
            </Array>
          </mxGeometry>
        </mxCell>
        <mxCell id="mTcE_A4vf_Ze26416u9T-9" value="No" style="edgeLabel;html=1;align=center;verticalAlign=middle;resizable=0;points=[];" parent="mTcE_A4vf_Ze26416u9T-8" vertex="1" connectable="0">
          <mxGeometry x="-0.7293" relative="1" as="geometry">
            <mxPoint x="-11" y="6" as="offset" />
          </mxGeometry>
        </mxCell>
        <mxCell id="mTcE_A4vf_Ze26416u9T-10" value="is num-1 equal 0" style="rhombus;whiteSpace=wrap;html=1;" parent="1" vertex="1">
          <mxGeometry x="221.5" y="290" width="121" height="52" as="geometry" />
        </mxCell>
        <mxCell id="mTcE_A4vf_Ze26416u9T-11" value="" style="edgeStyle=orthogonalEdgeStyle;rounded=0;orthogonalLoop=1;jettySize=auto;html=1;" parent="1" source="mTcE_A4vf_Ze26416u9T-12" target="mTcE_A4vf_Ze26416u9T-19" edge="1">
          <mxGeometry relative="1" as="geometry" />
        </mxCell>
        <mxCell id="mTcE_A4vf_Ze26416u9T-12" value="send num-1" style="whiteSpace=wrap;html=1;" parent="1" vertex="1">
          <mxGeometry x="226" y="370" width="110" height="38" as="geometry" />
        </mxCell>
        <mxCell id="mTcE_A4vf_Ze26416u9T-13" value="" style="edgeStyle=orthogonalEdgeStyle;rounded=0;orthogonalLoop=1;jettySize=auto;html=1;" parent="1" source="mTcE_A4vf_Ze26416u9T-14" target="mTcE_A4vf_Ze26416u9T-17" edge="1">
          <mxGeometry relative="1" as="geometry" />
        </mxCell>
        <mxCell id="mTcE_A4vf_Ze26416u9T-14" value="send end message" style="whiteSpace=wrap;html=1;" parent="1" vertex="1">
          <mxGeometry x="379.5" y="297" width="110" height="38" as="geometry" />
        </mxCell>
        <mxCell id="mTcE_A4vf_Ze26416u9T-15" style="edgeStyle=orthogonalEdgeStyle;rounded=0;orthogonalLoop=1;jettySize=auto;html=1;exitX=0.5;exitY=1;exitDx=0;exitDy=0;entryX=0.5;entryY=0;entryDx=0;entryDy=0;" parent="1" source="mTcE_A4vf_Ze26416u9T-16" target="mTcE_A4vf_Ze26416u9T-10" edge="1">
          <mxGeometry relative="1" as="geometry" />
        </mxCell>
        <mxCell id="mTcE_A4vf_Ze26416u9T-16" value="Input num" style="rectangle;whiteSpace=wrap;html=1;fontSize=12;glass=0;strokeWidth=1;shadow=0;" parent="1" vertex="1">
          <mxGeometry x="221.5" y="220" width="120" height="40" as="geometry" />
        </mxCell>
        <mxCell id="mTcE_A4vf_Ze26416u9T-17" value="Terminate Client" style="whiteSpace=wrap;html=1;" parent="1" vertex="1">
          <mxGeometry x="379.5" y="507" width="110" height="38" as="geometry" />
        </mxCell>
        <mxCell id="mTcE_A4vf_Ze26416u9T-18" style="edgeStyle=orthogonalEdgeStyle;rounded=0;orthogonalLoop=1;jettySize=auto;html=1;exitX=0.5;exitY=1;exitDx=0;exitDy=0;entryX=0.5;entryY=0;entryDx=0;entryDy=0;" parent="1" source="mTcE_A4vf_Ze26416u9T-19" target="mTcE_A4vf_Ze26416u9T-22" edge="1">
          <mxGeometry relative="1" as="geometry" />
        </mxCell>
        <mxCell id="mTcE_A4vf_Ze26416u9T-19" value="receive message" style="whiteSpace=wrap;html=1;" parent="1" vertex="1">
          <mxGeometry x="226" y="440" width="110" height="38" as="geometry" />
        </mxCell>
        <mxCell id="mTcE_A4vf_Ze26416u9T-20" style="edgeStyle=orthogonalEdgeStyle;rounded=0;orthogonalLoop=1;jettySize=auto;html=1;exitX=0;exitY=0.5;exitDx=0;exitDy=0;entryX=0;entryY=0.5;entryDx=0;entryDy=0;" parent="1" source="mTcE_A4vf_Ze26416u9T-22" target="mTcE_A4vf_Ze26416u9T-10" edge="1">
          <mxGeometry relative="1" as="geometry">
            <mxPoint x="190" y="310" as="targetPoint" />
            <Array as="points">
              <mxPoint x="180" y="526" />
              <mxPoint x="180" y="316" />
            </Array>
          </mxGeometry>
        </mxCell>
        <mxCell id="mTcE_A4vf_Ze26416u9T-21" value="No" style="edgeLabel;html=1;align=center;verticalAlign=middle;resizable=0;points=[];" parent="mTcE_A4vf_Ze26416u9T-20" vertex="1" connectable="0">
          <mxGeometry x="-0.7471" y="1" relative="1" as="geometry">
            <mxPoint x="-16" y="-106" as="offset" />
          </mxGeometry>
        </mxCell>
        <mxCell id="mTcE_A4vf_Ze26416u9T-22" value="is end message" style="rhombus;whiteSpace=wrap;html=1;" parent="1" vertex="1">
          <mxGeometry x="220.5" y="500" width="121" height="52" as="geometry" />
        </mxCell>
        <mxCell id="mTcE_A4vf_Ze26416u9T-25" value="" style="edgeStyle=orthogonalEdgeStyle;rounded=0;orthogonalLoop=1;jettySize=auto;html=1;exitX=1;exitY=0.5;exitDx=0;exitDy=0;entryX=0;entryY=0.5;entryDx=0;entryDy=0;" parent="1" source="mTcE_A4vf_Ze26416u9T-22" target="mTcE_A4vf_Ze26416u9T-17" edge="1">
          <mxGeometry relative="1" as="geometry">
            <mxPoint x="353.43351648351677" y="525.7185714285714" as="sourcePoint" />
            <mxPoint x="360" y="420" as="targetPoint" />
          </mxGeometry>
        </mxCell>
        <mxCell id="mTcE_A4vf_Ze26416u9T-26" value="Yes" style="edgeLabel;html=1;align=center;verticalAlign=middle;resizable=0;points=[];" parent="mTcE_A4vf_Ze26416u9T-25" vertex="1" connectable="0">
          <mxGeometry x="-0.2321" y="1" relative="1" as="geometry">
            <mxPoint y="-8" as="offset" />
          </mxGeometry>
        </mxCell>
      </root>
    </mxGraphModel>
  </diagram>
</mxfile>
